<svg xmlns="http://www.w3.org/2000/svg" viewBox="0 0 256 256">
  <defs>
    <filter id="paper-noise" x="0" y="0" width="100%" height="100%">
      <feTurbulence type="fractalNoise" baseFrequency=".82" numOctaves="2" seed="29" result="noise"/>
      <feColorMatrix in="noise" type="saturate" values="0" result="mono"/>
      <feComponentTransfer in="mono">
        <feFuncA type="table" tableValues="0 .17"/>
      </feComponentTransfer>
    </filter>
  </defs>
  <g fill="none" stroke-linecap="round">
    <g stroke="#786e58">
      <path d="M13 31h7M83 18h4M167 41h8M226 14h5M43 78h5M123 68h7M202 91h5M11 119h6M74 143h5M153 127h8M231 155h5M27 194h7M102 179h4M187 208h7M59 239h5M221 239h5" stroke-width=".7" opacity=".12"/>
      <path d="m34 48 4-1m91 20 5 1m-93 47 5-1m106 20 4 1m-68 52 5-1m92 34 5 1m-70 25 4-1" stroke-width=".55" opacity=".1"/>
    </g>
    <g stroke="#fff" opacity=".22">
      <path d="M53 12h12M192 57h9M20 164h10M143 231h12M224 112h8" stroke-width=".8"/>
    </g>
  </g>
  <rect width="256" height="256" fill="#777064" filter="url(#paper-noise)" opacity=".2"/>
</svg>
