<svg xmlns="http://www.w3.org/2000/svg" viewBox="0 0 128 128">
  <defs>
    <clipPath id="disc"><circle cx="64" cy="64" r="63"/></clipPath>
    <filter id="stone-grain" x="0" y="0" width="100%" height="100%">
      <feTurbulence type="fractalNoise" baseFrequency=".68" numOctaves="2" seed="43" result="noise"/>
      <feColorMatrix in="noise" type="saturate" values="0" result="mono"/>
      <feComponentTransfer in="mono">
        <feFuncA type="table" tableValues="0 .2"/>
      </feComponentTransfer>
    </filter>
  </defs>
  <g clip-path="url(#disc)">
    <g fill="none" stroke-linecap="round">
      <g stroke="#fff" opacity=".32">
        <path d="M8 28c18-17 39-21 60-12 8 3 14 7 21 13M16 45c15-12 29-14 44-8M70 87c14-11 31-13 50-6M11 101c16-10 31-10 48-4" stroke-width="3.4"/>
        <path d="M31 70c11-6 21-7 32-3m16-47c8-3 15-2 22 2M51 112c9-4 19-4 28 0" stroke-width="2.1" opacity=".7"/>
      </g>
      <g stroke="#302a23" opacity=".2">
        <path d="M9 58c15-8 28-8 42-2m29 29c13-8 27-9 41-3M25 17c11-5 21-5 32 0" stroke-width="2.6"/>
      </g>
    </g>
    <g fill="#fff" opacity=".24">
      <circle cx="28" cy="87" r="1.7"/><circle cx="43" cy="31" r="1.2"/><circle cx="93" cy="47" r="1.5"/>
      <circle cx="74" cy="104" r="1.4"/><circle cx="107" cy="76" r="1.7"/><circle cx="18" cy="69" r="1.1"/>
      <circle cx="57" cy="55" r="1.4"/><circle cx="83" cy="19" r="1.2"/><circle cx="39" cy="108" r="1.2"/>
    </g>
    <g fill="#302a23" opacity=".18">
      <circle cx="20" cy="39" r="1.6"/><circle cx="63" cy="20" r="1.2"/><circle cx="104" cy="32" r="1.6"/>
      <circle cx="84" cy="66" r="1.5"/><circle cx="48" cy="92" r="1.6"/><circle cx="110" cy="99" r="1.3"/>
      <circle cx="25" cy="116" r="1.1"/><circle cx="67" cy="77" r="1.3"/>
    </g>
    <rect width="128" height="128" fill="#777" filter="url(#stone-grain)" opacity=".18"/>
  </g>
</svg>
